<?xml version="1.0" encoding="utf-8"?>
<!-- Generator: Adobe Illustrator 27.0.0, SVG Export Plug-In . SVG Version: 6.00 Build 0)  -->
<svg version="1.1" id="Layer_1" xmlns="http://www.w3.org/2000/svg" xmlns:xlink="http://www.w3.org/1999/xlink" x="0px" y="0px"
	 viewBox="0 0 1050.5 231.59" enable-background="new 0 0 1050.5 231.59" xml:space="preserve">
<g>
	<path d="M167.839,180.27l-106.794,4.94c-0.522,0.024-0.956-0.457-0.956-1.059v-2.82c0-0.585,0.412-1.06,0.92-1.06H167.839
		L167.839,180.27L167.839,180.27z"/>
	<path d="M132.283,155.664h-3.445c-0.509,0-0.921-0.472-0.921-1.053v-2.834c0-0.582,0.413-1.053,0.921-1.053h3.445
		c0.509,0,0.922,0.472,0.922,1.053v2.834C133.205,155.193,132.792,155.664,132.283,155.664L132.283,155.664z"/>
	<path d="M132.283,145.993h-3.445c-0.509,0-0.921-0.472-0.921-1.053v-2.834c0-0.582,0.413-1.054,0.921-1.054h3.445
		c0.509,0,0.922,0.472,0.922,1.054v2.834C133.205,145.521,132.792,145.993,132.283,145.993L132.283,145.993z"/>
	<path d="M132.283,136.322h-3.445c-0.509,0-0.921-0.472-0.921-1.053v-2.834c0-0.582,0.413-1.053,0.921-1.053h3.445
		c0.509,0,0.922,0.472,0.922,1.053v2.834C133.205,135.85,132.792,136.322,132.283,136.322L132.283,136.322z"/>
	<path d="M132.283,175.007h-3.445c-0.509,0-0.921-0.472-0.921-1.053v-2.834c0-0.582,0.413-1.053,0.921-1.053h3.445
		c0.509,0,0.922,0.471,0.922,1.053v2.834C133.205,174.536,132.792,175.007,132.283,175.007L132.283,175.007z"/>
	<path d="M132.283,165.336h-3.445c-0.509,0-0.921-0.472-0.921-1.053v-2.834c0-0.581,0.413-1.053,0.921-1.053h3.445
		c0.509,0,0.922,0.472,0.922,1.053v2.834C133.205,164.864,132.792,165.336,132.283,165.336L132.283,165.336z"/>
	<path d="M135.076,126.65h-9.03c-0.497,0-0.899-0.46-0.899-1.027v-2.886c0-0.568,0.402-1.028,0.899-1.028h9.03
		c0.497,0,0.899,0.46,0.899,1.028v2.886C135.975,126.19,135.572,126.65,135.076,126.65L135.076,126.65z"/>
	<path d="M141.049,116.979h-20.976c-0.508,0-0.919-0.47-0.919-1.05v-2.84c0-0.58,0.411-1.05,0.919-1.05h20.976
		c0.507,0,0.919,0.47,0.919,1.05v2.84C141.968,116.509,141.556,116.979,141.049,116.979L141.049,116.979z"/>
	<path d="M147.535,107.308h-33.948c-0.487,0-0.881-0.451-0.881-1.008v-2.926c0-0.556,0.395-1.007,0.881-1.007h33.948
		c0.487,0,0.882,0.451,0.882,1.007v2.926C148.416,106.857,148.022,107.308,147.535,107.308L147.535,107.308z"/>
	<path d="M150.838,97.636h-40.554c-0.441,0-0.799-0.468-0.799-1.045v-2.85c0-0.577,0.358-1.045,0.799-1.045h40.554
		c0.441,0,0.799,0.468,0.799,1.045v2.85C151.637,97.168,151.279,97.636,150.838,97.636L150.838,97.636z"/>
	<path d="M160.009,88.428H60.982c-0.493,0-0.893-0.457-0.893-1.02v-2.9c0-0.564,0.4-1.021,0.893-1.021h99.027
		c0.493,0,0.893,0.457,0.893,1.021v2.9C160.902,87.971,160.502,88.428,160.009,88.428L160.009,88.428z"/>
	<path d="M101.369,175.007H61.054c-0.507,0-0.918-0.47-0.918-1.049v-2.842c0-0.58,0.411-1.049,0.918-1.049h40.315
		c0.507,0,0.918,0.47,0.918,1.049v2.842C102.287,174.538,101.876,175.007,101.369,175.007L101.369,175.007z"/>
	<path d="M101.369,97.636H61.054c-0.507,0-0.918-0.47-0.918-1.049v-2.842c0-0.58,0.411-1.049,0.918-1.049h40.315
		c0.507,0,0.918,0.47,0.918,1.049v2.842C102.287,97.167,101.876,97.636,101.369,97.636L101.369,97.636z"/>
	<path d="M101.369,107.308H61.054c-0.507,0-0.918-0.47-0.918-1.049v-2.842c0-0.579,0.411-1.049,0.918-1.049h40.315
		c0.507,0,0.918,0.47,0.918,1.049v2.842C102.287,106.838,101.876,107.308,101.369,107.308L101.369,107.308z"/>
	<path d="M101.369,116.979H61.054c-0.507,0-0.918-0.47-0.918-1.049v-2.842c0-0.58,0.411-1.049,0.918-1.049h40.315
		c0.507,0,0.918,0.47,0.918,1.049v2.842C102.287,116.509,101.876,116.979,101.369,116.979L101.369,116.979z"/>
	<path d="M101.369,126.65H61.054c-0.507,0-0.918-0.47-0.918-1.049v-2.842c0-0.579,0.411-1.049,0.918-1.049h40.315
		c0.507,0,0.918,0.47,0.918,1.049v2.842C102.287,126.181,101.876,126.65,101.369,126.65L101.369,126.65z"/>
	<path d="M101.369,136.322H61.054c-0.507,0-0.918-0.47-0.918-1.049v-2.842c0-0.58,0.411-1.049,0.918-1.049h40.315
		c0.507,0,0.918,0.47,0.918,1.049v2.842C102.287,135.852,101.876,136.322,101.369,136.322L101.369,136.322z"/>
	<path d="M101.369,145.993H61.054c-0.507,0-0.918-0.47-0.918-1.049v-2.842c0-0.579,0.411-1.049,0.918-1.049h40.315
		c0.507,0,0.918,0.47,0.918,1.049v2.842C102.287,145.523,101.876,145.993,101.369,145.993L101.369,145.993z"/>
	<path d="M101.369,155.664H61.054c-0.507,0-0.918-0.47-0.918-1.049v-2.842c0-0.58,0.411-1.049,0.918-1.049h40.315
		c0.507,0,0.918,0.47,0.918,1.049v2.842C102.287,155.195,101.876,155.664,101.369,155.664L101.369,155.664z"/>
	<path d="M101.369,165.336H61.054c-0.507,0-0.918-0.47-0.918-1.049v-2.842c0-0.579,0.411-1.049,0.918-1.049h40.315
		c0.507,0,0.918,0.47,0.918,1.049v2.842C102.287,164.866,101.876,165.336,101.369,165.336L101.369,165.336z"/>
	<path d="M166.941,78.849h-72.76c-0.496,0-0.899-0.46-0.899-1.027v-2.886c0-0.567,0.402-1.027,0.899-1.027h72.76
		c0.496,0,0.899,0.46,0.899,1.027v2.886C167.839,78.389,167.437,78.849,166.941,78.849L166.941,78.849z"/>
	<path d="M172.889,69.142H88.235c-0.509,0-0.922-0.472-0.922-1.054v-2.833c0-0.582,0.413-1.054,0.922-1.054h84.654
		c0.509,0,0.922,0.472,0.922,1.054v2.833C173.811,68.67,173.398,69.142,172.889,69.142L172.889,69.142z"/>
	<path d="M179.752,58.398c0,0.587-0.412,1.062-0.92,1.062H81.373l0,0l97.418-4.94c0.524-0.027,0.961,0.456,0.961,1.061V58.398
		L179.752,58.398z"/>
	<g>
		<defs>
			<rect id="SVGID_1_" x="1.676" y="1.779" width="228.294" height="228.331"/>
		</defs>
		<clipPath id="SVGID_00000090255444511117052970000009274009003753513878_">
			<use xlink:href="#SVGID_1_"  overflow="visible"/>
		</clipPath>
		<path clip-path="url(#SVGID_00000090255444511117052970000009274009003753513878_)" fill="#BE2346" d="M102.633,51.31
			c0,1.708-1.383,3.082-3.088,3.082c-1.707,0-3.088-1.374-3.088-3.082c0-1.711,1.381-3.094,3.088-3.094
			C101.249,48.216,102.633,49.599,102.633,51.31L102.633,51.31z"/>
		<path clip-path="url(#SVGID_00000090255444511117052970000009274009003753513878_)" d="M115.804,1.779
			C52.752,1.779,1.639,52.893,1.639,115.945S52.752,230.11,115.804,230.11S229.97,178.997,229.97,115.945
			S178.856,1.779,115.804,1.779L115.804,1.779L115.804,1.779z M115.804,6.72c14.747,0,29.051,2.887,42.514,8.581
			c13.006,5.501,24.687,13.377,34.72,23.41c10.033,10.033,17.909,21.714,23.41,34.72c5.694,13.463,8.581,27.766,8.581,42.514
			s-2.887,29.051-8.581,42.514c-5.501,13.006-13.377,24.687-23.41,34.72c-10.032,10.033-21.714,17.909-34.72,23.41
			c-13.463,5.694-27.766,8.581-42.514,8.581c-14.747,0-29.051-2.887-42.514-8.581c-13.006-5.501-24.687-13.377-34.72-23.41
			c-10.033-10.032-17.909-21.714-23.41-34.72c-5.694-13.463-8.581-27.766-8.581-42.514s2.887-29.051,8.581-42.514
			c5.501-13.006,13.377-24.687,23.41-34.72c10.033-10.033,21.714-17.909,34.72-23.41C86.753,9.607,101.057,6.72,115.804,6.72"/>
	</g>
</g>
<g>
	<g>
		<path d="M336.682,151.997c-1.7-0.1-6.201-0.2-9.201-0.2s-7.5,0.101-9.201,0.2v-1.5c2.4-0.6,3.4-1.101,3.4-9.101v-21.302
			c0-8.6-1.6-12-6.3-12c-2.8,0-4.9,1.8-6.701,4.5v28.802c0,8,1.1,8.501,3.5,9.101v1.5c-1.8-0.1-6.301-0.2-9.301-0.2
			c-2.9,0-7.4,0.101-9.201,0.2v-1.5c2.4-0.6,3.4-1.101,3.4-9.101V89.193c0-3-0.1-5-0.4-6.4c-1.2,0.3-6,0.9-13.701,0.9v52.704
			c0,11.301,0.2,13.301,4,14.101v1.5c-1.8-0.1-7.101-0.2-10.201-0.2c-2.9,0-8.4,0.101-10.201,0.2v-1.5c3.7-0.8,4-2.8,4-14.101
			V83.693c-12.401,0.2-13.301,3.7-14.001,10.701h-1.6c0.1-3.3,0.2-6.201,0.2-8.601c0-3.4-0.1-6-0.3-7.601
			c3.5,1.5,10.401,1.9,22.702,1.9c8.8,0,22.501-0.4,31.102-4.5v33.902c4.601-4.5,8.5-5.7,12.001-5.7c5.6,0,12.601,2,12.601,16.301
			v21.302c0,8,1,8.501,3.4,9.101V151.997z"/>
		<path d="M375.879,141.496c-4,7.301-9.4,11.301-15.701,11.301c-11.301,0-19.601-9.2-19.601-24.401
			c0-15.601,8.8-24.602,19.501-24.602c7.8,0,16.501,4.801,16.501,19.901h-25.001v1.2c0,12.9,4.6,21.401,12.501,21.401
			c3.8,0,7.4-1.9,11-6.101L375.879,141.496z M365.579,120.495c0-9.101-1.6-14.001-5.701-14.001c-5.4,0-7.5,7.7-8.1,14.001H365.579z"
			/>
		<path d="M450.179,151.297c0,0-1.2,0.9-5.9,0.9c-2.5,0-6.2-0.3-9.201-3.5c-4.7-5.001-8-18.901-13.601-29.202h-1.8v16.901
			c0,11.301,0.3,13.301,4,14.101v1.5c-1.7-0.1-7.201-0.2-10.201-0.2c-2.9,0-8.5,0.101-10.201,0.2v-1.5c3.6-0.8,4-2.8,4-14.101
			V94.493c0-11.3-0.5-13.301-4.1-14.101v-1.5c1.4,0.1,7.2,0.2,10.101,0.2c4.9,0,8.201-0.2,10.601-0.2
			c14.901,0,21.901,8.101,21.901,20.001c0,7.9-2.9,14.102-12.101,18.102c4,10,14.101,32.002,16.501,33.502V151.297z
			 M423.177,116.795c6.4,0,9.301-5.2,9.301-16.801c0-12.201-2.9-18.101-9.601-18.101c-1.8,0-2.9,0.4-3.2,0.9v34.002H423.177z"/>
		<path d="M452.676,128.395c0-15.101,10.5-24.602,20.401-24.602c10,0,20.601,9.501,20.601,24.602
			c0,14.501-10.901,24.002-20.601,24.002C463.477,152.397,452.676,142.896,452.676,128.395z M481.078,128.395
			c0-14.4-1.4-21.901-7.801-21.901c-6.2,0-8,7.501-8,21.901c0,13.701,1.5,21.302,7.9,21.302
			C479.378,149.697,481.078,142.096,481.078,128.395z"/>
		<path d="M498.075,128.395c0-15.101,10.501-24.602,20.401-24.602c10,0,20.601,9.501,20.601,24.602
			c0,14.501-10.9,24.002-20.601,24.002C508.875,152.397,498.075,142.896,498.075,128.395z M526.476,128.395
			c0-14.4-1.399-21.901-7.8-21.901c-6.201,0-8.001,7.501-8.001,21.901c0,13.701,1.5,21.302,7.9,21.302
			C524.776,149.697,526.476,142.096,526.476,128.395z"/>
		<path d="M592.176,142.696c-1.301,6.101-3.5,9.701-10.101,9.701c-8.501,0-11.301-4.2-11.301-13.901v-27.001h-11.201v29.901
			c0,8,1,8.501,3.4,9.101v1.5c-1.9-0.1-6.601-0.2-10.101-0.2c-5.101,0-7.301,0.101-8.301,0.2v-1.5c2.4-0.6,3.4-1.101,3.4-9.101
			v-29.901h-5.9v-1.301l5.9-5.9c0-12.101,0.101-18.301,2.301-23.001c2.1-4.4,6.1-6.2,9.8-6.2c4.501,0,6.701,2.9,8.001,7l-7.2,6.1
			c-0.801-2.1-2.801-7.4-5.9-7.4c-1.9,0-3.101,1.5-3.101,4.5c0,7,7.7,8.601,7.7,17.401v1.6h6.601c9.001,0,12.201-7.9,14.001-16.101
			l2.601,0.5c-0.301,3.2-0.4,9.901-0.4,15.601h1c2.4,0,5.2,0,7-2.3l0.9,1.2l-3.8,7.701h-5.101v25.502c0,7.5,1.3,10.5,4.5,10.5
			c2.2,0,3.2-2,4.101-4.7L592.176,142.696z"/>
		<path d="M594.573,128.395c0-15.101,10.501-24.602,20.401-24.602c10,0,20.601,9.501,20.601,24.602
			c0,14.501-10.9,24.002-20.601,24.002C605.374,152.397,594.573,142.896,594.573,128.395z M622.974,128.395
			c0-14.4-1.399-21.901-7.8-21.901c-6.201,0-8.001,7.501-8.001,21.901c0,13.701,1.5,21.302,7.9,21.302
			C621.274,149.697,622.974,142.096,622.974,128.395z"/>
		<path d="M658.072,174.498c-1.8-0.1-6.3-0.2-9.3-0.2c-2.9,0-7.4,0.101-9.201,0.2v-1.5c2.4-0.6,3.4-1.1,3.4-9.101v-46.503
			c0-6.1-0.1-8.2-2.1-9v-1.5c5.3,0,9.9-1.1,13.7-3.1v4.4c2.101-2.8,4.801-4.4,8.501-4.4c10.101,0,18.101,9.501,18.101,24.002
			c0,13.7-7.5,24.602-19.401,24.602c-2.899,0-5.399-1.101-7.2-2.9v14.4c0,8.001,1.101,8.501,3.5,9.101V174.498z M654.572,145.396
			c1,2,3.601,3.9,6.7,3.9c6.201,0,7.401-6.7,7.401-21.501c0-13.701-1.601-20.702-7.001-20.702c-3.601,0-5.8,1.6-7.101,4.201V145.396
			z"/>
		<path d="M764.173,145.596c0,0-0.1-0.4-1-0.4c-5.5,0-9.101,7.601-24.101,7.601c-21.502,0-31.803-17.601-31.803-37.402
			c0-18.401,10.001-36.802,33.202-36.802c10.301,0,15.901,3.4,21.901,3.4c-0.2,2.8-0.3,6.5-0.3,10.4c0,3.9,0.2,6.701,0.2,9.401h-1.4
			c-5.8-15.901-13.501-20.001-20.001-20.001c-13.301,0-20.201,12.301-20.201,34.403c0,22.501,8,33.401,19.201,33.401
			c5.2,0,9.101-1.899,11.7-5.7v-11.9c0-11.101-0.2-13.401-3.8-14.101v-1.501c1.7,0.101,7,0.2,10,0.2c3.001,0,8.601-0.1,10.301-0.2
			v1.501c-3.8,0.8-4.1,3.5-4.1,14.7c0,6.801,0.1,10.701,0.5,12.601L764.173,145.596z"/>
		<path d="M814.874,145.497c-1.301,2.5-4.001,6.9-9.301,6.9c-3.5,0-6.501-1.301-8.101-5.301c-2.5,3.4-5.301,5.301-10.2,5.301
			c-5.9,0-13.802-1.4-13.802-16.201v-18.802c0-6.2-0.3-8.2-2-9v-1.5c5.301,0,9.701-1.1,13.602-3.1v29.102
			c0,12.102,1.399,15.201,6.8,15.201c1.801,0,3.801-1.3,5.001-3.3c-0.101-0.7-0.2-1.4-0.2-2.2v-25.202c0-6.2-0.3-8.2-2.101-9v-1.5
			c5.301,0,9.801-1.1,13.701-3.1v36.902c0,4,1.2,5.7,2.6,5.7c1.2,0,2.2-0.8,3.2-2.2L814.874,145.497z"/>
		<path d="M835.77,151.997c-1.8-0.1-6.3-0.2-9.3-0.2c-2.9,0-7.401,0.101-9.201,0.2v-1.5c2.4-0.6,3.4-1.101,3.4-9.101v-24.002
			c0-6.1-0.1-8.3-2.4-9v-1.5c5.301,0,10.101-1.1,14.001-3.1v37.603c0,8,1.101,8.501,3.5,9.101V151.997z"/>
		<path d="M881.271,147.197c-1.601,2.7-4.2,5.2-7.701,5.2c-3.1,0-5.1-1.5-6.2-4.301c-2.3,3.101-4.9,4.301-8.7,4.301
			c-10.701,0-18.602-9.401-18.602-24.002c0-14.101,8.601-24.602,19.602-24.602c3.2,0,5.4,1,6.801,2.6V89.193
			c0-6.1-0.101-8.3-2.101-9v-1.5c5.301,0,9.9-1.1,13.701-3.1v59.704c0,9.601,0.1,11.101,1.6,11.101c0.5,0,0.8-0.5,0.8-0.5
			L881.271,147.197z M866.47,110.694c-0.601-2.1-2.301-3.8-5.701-3.8c-6.3,0-8.2,5.8-8.2,21.501c0,13.201,2.5,20.201,8.301,20.201
			c2.4,0,4.601-0.8,5.8-3.2c-0.199-1-0.199-2.1-0.199-3.3V110.694z"/>
		<path d="M920.67,141.496c-4.001,7.301-9.4,11.301-15.701,11.301c-11.301,0-19.602-9.2-19.602-24.401
			c0-15.601,8.801-24.602,19.502-24.602c7.8,0,16.501,4.801,16.501,19.901h-25.002v1.2c0,12.9,4.601,21.401,12.501,21.401
			c3.8,0,7.4-1.9,11-6.101L920.67,141.496z M910.37,120.495c0-9.101-1.601-14.001-5.7-14.001c-5.4,0-7.501,7.7-8.101,14.001H910.37z
			"/>
	</g>
	<path fill="#BD2345" d="M828.67,97.699c0,1.742-1.411,3.144-3.15,3.144c-1.741,0-3.15-1.402-3.15-3.144
		c0-1.746,1.409-3.156,3.15-3.156C827.259,94.543,828.67,95.953,828.67,97.699z"/>
</g>
</svg>
