<svg xmlns="http://www.w3.org/2000/svg" viewBox="0 0 48 48">
  <rect width="48" height="48" rx="10" fill="#5865F2"/>
  <path d="M32.5 16.5c-2-1-4-1.5-6.2-1.9l-.3.6c2 .5 3.8 1.2 5.5 2.3-2.3-1.2-4.8-2-7.5-2s-5.2.8-7.5 2c1.7-1.1 3.5-1.8 5.5-2.3l-.3-.6c-2.2.4-4.2.9-6.2 1.9-3.9 5.8-5 11.5-4.5 17 2.3 1.7 4.5 2.8 6.7 3.5.5-.7 1-1.5 1.4-2.3-.8-.3-1.5-.7-2.2-1.1l.5-.4c4 1.9 8.5 1.9 12.5 0l.5.4c-.7.4-1.4.8-2.2 1.1.4.8.9 1.6 1.4 2.3 2.2-.7 4.4-1.8 6.7-3.5.6-6.3-1-11.8-4.3-17zM19 29c-1.4 0-2.5-1.3-2.5-2.9s1.1-2.9 2.5-2.9 2.5 1.3 2.5 2.9-1.1 2.9-2.5 2.9zm10 0c-1.4 0-2.5-1.3-2.5-2.9s1.1-2.9 2.5-2.9 2.5 1.3 2.5 2.9-1.1 2.9-2.5 2.9z" fill="white"/>
</svg>
