<svg xmlns="http://www.w3.org/2000/svg" viewBox="0 0 48 48">
  <path d="M36 8H12c-2.2 0-4 1.8-4 4v28c0 2.2 1.8 4 4 4h24c2.2 0 4-1.8 4-4V12c0-2.2-1.8-4-4-4z" fill="#fff"/>
  <path d="M36 8H12c-2.2 0-4 1.8-4 4v4h32v-4c0-2.2-1.8-4-4-4z" fill="#1A73E8"/>
  <path d="M8 16h32v24c0 2.2-1.8 4-4 4H12c-2.2 0-4-1.8-4-4V16z" fill="#fff"/>
  <rect x="14" y="22" width="6" height="6" rx="1" fill="#1A73E8"/>
  <rect x="22" y="22" width="6" height="6" rx="1" fill="#1A73E8"/>
  <rect x="30" y="22" width="6" height="6" rx="1" fill="#1A73E8"/>
  <rect x="14" y="30" width="6" height="6" rx="1" fill="#1A73E8"/>
  <rect x="22" y="30" width="6" height="6" rx="1" fill="#1A73E8"/>
</svg>
