<svg xmlns="http://www.w3.org/2000/svg" viewBox="0 0 400 400">
  <path fill="#0089CF" d="M317.7,128.5L209.2,283.6h113.4l-0.6-109c0-22.2,0-23.4,0-25c0-1.7-0.6-4.4-0.6-7.2c-0.6-2.8-1.1-5-1.7-7.2L317.7,128.5z"/>
  <path fill="#0089CF" d="M187.5,117.9c-0.6-1.1-1.7-2.2-2.8-3.9s-2.8-2.8-3.9-4.4c-1.7-1.1-2.8-2.8-4.4-3.9s-2.8-2.2-5-3.3c-2.2-1.1-4.4-2.8-7.2-3.9c-2.8-1.1-5.6-2.2-7.8-2.8c-2.8-0.6-5-1.1-8.3-1.7c-2.8-0.6-6.1-0.6-9.5-0.6c-2.8,0-5.6,0-8.3,0.6c-2.8,0.6-5.6,1.1-8.3,1.7c-2.8,0.6-5.6,1.7-8.3,3.3c-2.8,1.1-5.6,2.8-8.3,4.4c-2.8,1.7-5.6,3.9-8.3,6.1c-2.8,2.2-4.4,4.4-6.7,7.2c-2.2,2.8-4.4,5.6-6.1,8.3c-1.7,2.8-3.3,6.1-4.4,10c-1.1,3.9-2.2,7.8-2.8,11.1c-0.6,3.9-1.1,7.2-1.1,10.6v127.3l113.4-163.5C188.1,119.6,188.1,118.5,187.5,117.9z"/>
  <path fill="#0089CF" d="M304.9,112.4c-0.6-0.6-1.7-1.7-2.8-2.8s-2.8-2.8-4.4-3.9s-3.3-2.8-5-3.9c-1.7-1.1-3.9-2.2-6.1-3.3c-2.2-1.1-4.4-1.7-7.2-2.2c-2.8-0.6-5-1.1-7.8-1.7c-2.8-0.6-5.6-0.6-8.9-1.1c-2.8,0-5.6,0-8.9,0.6c-3.3,0.6-6.7,0.6-10,1.7c-3.3,0.6-6.1,1.7-8.9,2.8c-2.8,1.1-5,2.8-7.8,4.4c-2.8,1.7-5.6,3.9-7.2,5.6c-2.2,1.7-3.3,3.3-5,4.4c-1.7,2.2-3.9,5-23.4,33.4c-20,28.4-57.8,83.4-96.2,137.9H187L306.5,114C306,113.5,306,112.9,304.9,112.4z"/>
  <path fill="#0089CF" d="M200.3,3.9C91.9,3.9,4,92.3,4,200.8s87.9,196.3,196.3,196.3s196.3-87.9,196.3-196.3S309.3,3.9,200.3,3.9z M200.3,370.9c-94,0-170.2-76.2-170.2-170.2S106.4,30.6,200.3,30.6s170.2,76.2,170.2,170.2C371.1,294.7,294.9,370.9,200.3,370.9z"/>
</svg>
