<svg xmlns="http://www.w3.org/2000/svg" viewBox="0 0 448 512">
  <path fill="#95bf47" d="M388.32 104.1a4.66 4.66 0 0 0-4.4-4c-2 0-37.23-.8-37.23-.8s-21.61-20.82-29.62-28.83V503.2L442.76 472S388.72 106.5 388.32 104.1zM288.65 70.47a116.67 116.67 0 0 0-7.21-17.61C271 32.85 255.42 22 237 22a15 15 0 0 0-4 .4c-.4-.8-1.2-1.2-1.6-2C223 10 212.82 4.8 200.28 5c-27.23.4-54.06 20.42-75.68 56.45-15.21 25.22-26.82 56.86-30 81.28-30.82 9.61-52.44 16.41-53.24 16.81-16 5.21-16.41 5.61-18.41 20.82-1.6 11.61-43.64 336.73-43.64 336.73L288.65 513.13V70.47z"/>
  <path fill="#5e8e3e" d="M283.45 66.47c-7.21-3.6-14.41-5.61-21.62-6.41a116.67 116.67 0 0 0-7.21-17.61C244.18 22.45 228.61 11.64 210.2 11.64a15 15 0 0 0-4 .4c-.4-.8-1.2-1.2-1.6-2-8.4-10-18.61-15.21-31.23-14.81-27.23.4-54.06 20.42-75.68 56.45-15.21 25.22-26.82 56.86-30 81.28-30.82 9.61-52.44 16.41-53.24 16.81-16 5.21-16.41 5.61-18.41 20.82-1.6 11.61-43.64 336.73-43.64 336.73l281.34 52.84V70.47c-3.21-1.6-6.81-3.2-10.81-4z"/>
  <path fill="#fff" d="M237 136.69c0 8.81-23.23 16.81-23.23 16.81-2.8-19.62-13.21-36.83-28.82-47.24-3.6 27.63-17.21 53.65-42.44 62.05-7.21-10.41-11.61-23.22-11.61-37.23 0-21.22 8.81-40.44 22.42-54.86a80.06 80.06 0 0 1 47.64-27.22c.4 1.2.4 2.4.8 4 2 11.21 2 28.02 35.24 83.69z"/>
</svg>