<svg xmlns="http://www.w3.org/2000/svg" viewBox="0 0 512 210.2">
  <path fill="#7f54b3" d="M47.4 0h417.2C490 0 512 22 512 47.4v102.6c0 25.4-22 47.4-47.4 47.4h-219l22.6 12.8-60.6-12.8H47.4C22 197.4 0 175.4 0 150V47.4C0 22 22 0 47.4 0z"/>
  <path fill="#fff" d="M38.3 34.6c3.1-3.9 7.5-6 13.1-6.3 10.2-.6 16 4.9 17.5 16.5 6.5 49.4 13.5 91.4 21.2 125.8l45.8-87.3c4.2-8 9.5-12.2 16-12.5 9.5-.5 15.4 5.4 17.5 17.8 4.6 26.6 10.5 49.4 17.8 68.6 4.9-51 13.1-87.9 24.7-110.8 2.9-5.7 7.2-8.6 12.8-9 4.6-.3 8.7 1.1 12.2 4.2s5.5 6.9 5.8 11.4c.2 3.5-.4 6.5-2 9.2-6.9 13.6-12.6 36.5-17.1 68.8-4.4 31.5-5.9 56.1-4.6 73.8.5 5.7-.2 10.6-2.1 14.8-2.2 4.6-5.6 7-10.1 7.3-5.1.3-10.1-2.1-15.1-7.2-17.6-18.3-31.6-45.6-42-82-13.3 26.2-23.4 45.9-30.1 59.1-12.3 23.6-22.7 35.7-31.4 36.2-5.6.3-10.4-4.1-14.4-13.2-10.2-23.8-21.2-69.7-33-137.7-1-6.2.1-11.4 3.5-15.6zm337.4 110c7.3-7.7 11-16.8 11.2-27.2.2-8-1.7-15.1-5.7-21.3-5-7.7-12.1-12.6-21.5-14.5-4.5-.9-9-.9-13.3.2-10.4 2.5-18.3 8.6-23.6 18.3-4.5 8.2-6.3 17.2-5.3 27.1 1.2 10.8 5.5 19.5 12.9 26 6.4 5.7 13.8 8.4 22.2 8 10.3-.7 18.4-5.6 23.1-16.6zm-356.2 0c7.3-7.7 11-16.8 11.2-27.2.2-8-1.7-15.1-5.7-21.3-5-7.7-12.1-12.6-21.5-14.5-4.5-.9-8.9-.9-13.3.2-10.4 2.5-18.3 8.6-23.6 18.3-4.5 8.2-6.3 17.2-5.3 27.1 1.2 10.8 5.5 19.5 12.9 26 6.4 5.7 13.8 8.4 22.2 8 10.3-.7 18.4-5.6 23.1-16.6z" transform="translate(-9.5 -28.3) scale(1.01)"/>
</svg>